# xmcd
#
# Track frame offsets:
#	150
#	22521
#	40674
#	59312
#	87003
#	108856
#	133177
#	147431
#	174738
#	193945
#	220871
#
# Disc length: 3223 seconds
#
# Revision: 0
# Processed by: cddbd v1.5.2PL0 Copyright (c) Steve Scherf et al.
# Submitted via: dBpowerAMP V4.0
#
DISCID=930c950b
DTITLE=Willie Pooch - Funk n Blues
DYEAR=2006
DGENRE=Blues
TTITLE0=Why I Sing The Blues
TTITLE1=House Arrest Blues
TTITLE2=Cross My Heart Blues
TTITLE3=In My Lonely Room
TTITLE4=Same Old Blues
TTITLE5=The Thrill Is Gone
TTITLE6=Natural Ball
TTITLE7=Buckeye Steel Mill Blues
TTITLE8=Willie Rap
TTITLE9=Georgia on my Mind
TTITLE10=Everyday I have The Blues
EXTD=
EXTT0=
EXTT1=
EXTT2=
EXTT3=
EXTT4=
EXTT5=
EXTT6=
EXTT7=
EXTT8=
EXTT9=
EXTT10=
PLAYORDER=
